<svg xmlns="http://www.w3.org/2000/svg" viewBox="0 0 1200 600"><defs><pattern id="p" width="44" height="44" patternUnits="userSpaceOnUse"><rect width="44" height="44" fill="#d5e0dc"/><path d="M0 0h22v22H0zm22 22h22v22H22z" fill="#f3f4ea"/></pattern><linearGradient id="g" x2="1" y2="1"><stop stop-color="#276a74"/><stop offset="1" stop-color="#173e52"/></linearGradient><filter id="s"><feDropShadow dx="0" dy="20" stdDeviation="25" flood-opacity=".28"/></filter></defs><rect width="1200" height="600" fill="url(#g)"/><g filter="url(#s)" transform="rotate(-8 620 300)"><rect x="310" y="50" width="590" height="515" rx="38" fill="url(#p)"/><rect x="334" y="74" width="542" height="467" rx="25" fill="none" stroke="#eff5eb" stroke-width="10" stroke-dasharray="30 19"/><circle cx="611" cy="252" r="120" fill="#f2be81"/><path d="M430 500q17-169 181-169t181 169" fill="#799db2"/><path d="M570 252q30 38 82 0" fill="none" stroke="#82645b" stroke-width="12" stroke-linecap="round"/><circle cx="567" cy="220" r="8" fill="#82645b"/><circle cx="652" cy="220" r="8" fill="#82645b"/></g><path d="m884 124 80-37-46 85m-34-48-67 117" fill="none" stroke="#d6ecdf" stroke-width="17" stroke-linecap="round" stroke-linejoin="round"/></svg>
