<svg xmlns="http://www.w3.org/2000/svg" viewBox="0 0 1200 600"><defs><linearGradient id="g" x2="1" y2="1"><stop stop-color="#875041"/><stop offset="1" stop-color="#4c3652"/></linearGradient><filter id="s"><feDropShadow dx="0" dy="20" stdDeviation="23" flood-opacity=".28"/></filter></defs><rect width="1200" height="600" fill="url(#g)"/><circle cx="40" cy="510" r="280" fill="#e4ae76" opacity=".18"/><g filter="url(#s)"><circle cx="440" cy="306" r="154" fill="#f6cb72"/><circle cx="735" cy="267" r="174" fill="#f7db96"/><path d="M380 270v27m118-27v27" stroke="#664145" stroke-width="19" stroke-linecap="round"/><path d="M385 350q56 55 115 0" fill="none" stroke="#664145" stroke-width="20" stroke-linecap="round"/><path d="M650 227v34m160-34v34" stroke="#664145" stroke-width="21" stroke-linecap="round"/><path d="M651 326q85 100 171 0" fill="none" stroke="#664145" stroke-width="22" stroke-linecap="round"/><path d="M855 114q24-55 65-42t28 59q-10 28-93 82-46-89 0-99Z" fill="#ef9e91"/><path d="M245 120q18-35 53-24t26 49q-6 23-67 61-34-59-12-86Z" fill="#f0a59a"/></g></svg>
