<?xml version="1.0" encoding="UTF-8"?>
<svg xmlns="http://www.w3.org/2000/svg" viewBox="0 0 1200 720" role="img" aria-labelledby="title desc">
<title id="title">拾隅温润楷品牌样句</title>
<desc id="desc">全部文字已经转换为可缩放 SVG 路径。</desc>
<rect width="1200" height="720" fill="#f7f5ee"/>
<g fill="#23443a">
<g transform="translate(380.00 245) scale(0.22 -0.22)"><path transform="translate(0 0)" d="M667 700Q768 563 861 476Q913 428 975 380Q986 371 986.0 366.5Q986 362 964.0 345.0Q942 328 931.0 328.0Q920 328 857 391Q742 506 641 645Q560 483 460 375Q419 330 390.0 307.5Q361 285 352.5 285.0Q344 285 344.0 294.0Q344 303 359 319Q540 530 600 724Q613 764 613 772V786L610 804Q610 815 620 815Q626 815 644.0 807.5Q662 800 678.5 789.0Q695 778 695.0 769.0Q695 760 667 700ZM66 567Q82 563 94 563H112Q119 563 126 564L221 572L222 737Q222 764 204 792Q201 797 201 800Q201 807 211.5 807.0Q222 807 239 802Q284 791 284 765L283 577L340 582Q356 583 369.0 589.0Q382 595 388.5 595.0Q395 595 408 586Q440 564 440 549Q440 536 415 534L283 522L282 368Q308 382 334.0 396.0Q360 410 378.0 420.0Q396 430 404.0 430.0Q412 430 412 422Q412 405 282 314L280 17L282 -24Q282 -52 263.0 -66.5Q244 -81 228.0 -81.0Q212 -81 192 -64Q143 -20 112.0 9.0Q81 38 81.0 47.5Q81 57 89.0 57.0Q97 57 128.5 38.5Q160 20 219 -1L220 274Q102 203 90.5 203.0Q79 203 64.5 213.0Q50 223 38.5 235.0Q27 247 27.0 253.0Q27 259 37.0 260.0Q47 261 72.5 268.0Q98 275 220 336L221 517L148 510Q137 509 128.0 508.0Q119 507 106 507Q79 507 62 556Q61 558 61.0 562.5Q61 567 66 567ZM587 362Q567 360 552.0 360.0Q537 360 525.5 373.0Q514 386 508.5 399.5Q503 413 503 414Q503 421 510 421Q514 421 526.0 418.0Q538 415 554 415H562L682 422Q708 423 722.0 429.0Q736 435 742.5 435.0Q749 435 762 427Q795 407 795 388Q795 376 775 374ZM821 26Q844 -2 844.0 -12.0Q844 -22 836.5 -24.0Q829 -26 818 -27L541 -34L544 -73V-78Q544 -99 529 -99Q505 -99 490.0 -84.5Q475 -70 475 -56V-49Q478 -25 478 -17V-4Q478 0 477 6L462 184Q459 222 451.5 237.5Q444 253 444 256Q444 263 454.5 263.0Q465 263 521 245L796 260H807Q822 260 839.0 247.5Q856 235 856.0 224.5Q856 214 853.0 208.5Q850 203 848 197ZM782 204 522 192 536 20 761 27Z"/><path transform="translate(1000 0)" d="M747 161 704 236Q704 243 716.5 250.0Q729 257 739.0 257.0Q749 257 755 249Q803 183 822.5 141.0Q842 99 842.0 90.0Q842 81 829.0 72.5Q816 64 806.5 64.0Q797 64 790.0 75.0Q783 86 766 125Q659 92 592.0 79.5Q525 67 515.0 67.0Q505 67 490.0 78.0Q475 89 470 120V122Q470 128 475 128Q490 125 503.5 125.0Q517 125 540.0 127.5Q563 130 584.0 133.0Q605 136 609 136L611 278L438 271L442 -66Q442 -85 427 -85Q404 -85 390.0 -71.0Q376 -57 376 -44V-37Q379 -1 379 40V259Q379 302 364 336Q363 339 363 341Q363 347 375.0 347.0Q387 347 442 322L611 330L612 403L505 398L506 384V382Q506 368 488.0 368.0Q470 368 455.0 381.5Q440 395 440 406V409Q442 435 442 453V469L431 659Q429 698 422.5 714.0Q416 730 416.0 737.5Q416 745 428.5 745.0Q441 745 490 725L815 748H822Q834 748 851.0 738.0Q868 728 868.0 719.0Q868 710 865.0 705.5Q862 701 861 698L841 463Q871 437 871.0 427.5Q871 418 864.0 416.5Q857 415 846 414L671 406L670 332L873 341L890 342Q910 342 921.5 330.0Q933 318 933 308L927 280L924 7L925 -35Q925 -57 910.0 -70.0Q895 -83 881.5 -83.0Q868 -83 841 -73Q782 -48 752.5 -25.0Q723 -2 713 13L703 28Q703 32 711.0 32.0Q719 32 762.0 13.5Q805 -5 862 -15L866 289L670 281L669 145ZM286 319Q293 319 293.0 346.5Q293 374 282.5 412.5Q272 451 230 497Q218 512 218.0 524.5Q218 537 241.5 578.0Q265 619 291 678L176 669L167 -66Q167 -93 149 -93Q136 -93 118.0 -80.5Q100 -68 100 -54V-49Q100 -46 103.5 -25.0Q107 -4 107 34L115 642Q115 695 108.0 712.0Q101 729 101.0 737.0Q101 745 116.0 745.0Q131 745 188 722L318 734L331 735Q344 735 358.0 724.5Q372 714 372.0 705.5Q372 697 367.0 691.5Q362 686 338.5 639.5Q315 593 295.0 561.5Q275 530 275.0 526.5Q275 523 289.5 507.0Q304 491 328.5 447.0Q353 403 353.0 344.5Q353 286 335.5 267.5Q318 249 304 249Q278 249 229.0 296.5Q180 344 180 366Q180 372 185 372Q192 372 215.5 355.5Q239 339 262.0 329.0Q285 319 286 319ZM800 699 673 690 672 599 794 606ZM615 687 488 678 493 589 614 596ZM791 558 672 551 671 455 784 460ZM613 548 496 541 502 447 612 452Z"/></g>
<g transform="translate(75.00 455) scale(0.105 -0.105)"><path transform="translate(0 0)" d="M667 700Q768 563 861 476Q913 428 975 380Q986 371 986.0 366.5Q986 362 964.0 345.0Q942 328 931.0 328.0Q920 328 857 391Q742 506 641 645Q560 483 460 375Q419 330 390.0 307.5Q361 285 352.5 285.0Q344 285 344.0 294.0Q344 303 359 319Q540 530 600 724Q613 764 613 772V786L610 804Q610 815 620 815Q626 815 644.0 807.5Q662 800 678.5 789.0Q695 778 695.0 769.0Q695 760 667 700ZM66 567Q82 563 94 563H112Q119 563 126 564L221 572L222 737Q222 764 204 792Q201 797 201 800Q201 807 211.5 807.0Q222 807 239 802Q284 791 284 765L283 577L340 582Q356 583 369.0 589.0Q382 595 388.5 595.0Q395 595 408 586Q440 564 440 549Q440 536 415 534L283 522L282 368Q308 382 334.0 396.0Q360 410 378.0 420.0Q396 430 404.0 430.0Q412 430 412 422Q412 405 282 314L280 17L282 -24Q282 -52 263.0 -66.5Q244 -81 228.0 -81.0Q212 -81 192 -64Q143 -20 112.0 9.0Q81 38 81.0 47.5Q81 57 89.0 57.0Q97 57 128.5 38.5Q160 20 219 -1L220 274Q102 203 90.5 203.0Q79 203 64.5 213.0Q50 223 38.5 235.0Q27 247 27.0 253.0Q27 259 37.0 260.0Q47 261 72.5 268.0Q98 275 220 336L221 517L148 510Q137 509 128.0 508.0Q119 507 106 507Q79 507 62 556Q61 558 61.0 562.5Q61 567 66 567ZM587 362Q567 360 552.0 360.0Q537 360 525.5 373.0Q514 386 508.5 399.5Q503 413 503 414Q503 421 510 421Q514 421 526.0 418.0Q538 415 554 415H562L682 422Q708 423 722.0 429.0Q736 435 742.5 435.0Q749 435 762 427Q795 407 795 388Q795 376 775 374ZM821 26Q844 -2 844.0 -12.0Q844 -22 836.5 -24.0Q829 -26 818 -27L541 -34L544 -73V-78Q544 -99 529 -99Q505 -99 490.0 -84.5Q475 -70 475 -56V-49Q478 -25 478 -17V-4Q478 0 477 6L462 184Q459 222 451.5 237.5Q444 253 444 256Q444 263 454.5 263.0Q465 263 521 245L796 260H807Q822 260 839.0 247.5Q856 235 856.0 224.5Q856 214 853.0 208.5Q850 203 848 197ZM782 204 522 192 536 20 761 27Z"/><path transform="translate(1000 0)" d="M219 307Q208 253 186 189Q228 157 278 131L283 412L147 404Q127 402 117.5 402.0Q108 402 98 404Q72 409 59 448Q58 450 58.0 455.5Q58 461 64 461Q66 461 77.5 457.0Q89 453 111 453H120L277 462V567L206 562Q188 560 171.5 560.0Q155 560 143.0 571.0Q131 582 125.5 594.5Q120 607 120 610Q120 617 127 617Q130 617 141.5 613.5Q153 610 174 610H181L278 617V740Q278 761 270.5 773.0Q263 785 263 790Q263 798 275.0 798.0Q287 798 306.5 792.0Q326 786 332.5 780.0Q339 774 339 765L338 622L389 626Q408 627 419.5 631.5Q431 636 436.5 636.0Q442 636 454 628Q484 609 484 593Q484 584 463 581L338 572L337 466L435 472Q454 474 464.5 478.0Q475 482 478.5 482.0Q482 482 494 476Q526 457 526 439Q526 428 505 425L343 415L341 308L390 310Q418 313 426.5 316.0Q435 319 437.0 319.0Q439 319 450 313Q483 296 483 275Q483 264 462 261L341 255L338 102Q581 1 952 -5Q975 -5 975 -14L970 -28Q952 -69 927 -69H920Q615 -50 440 4Q281 51 165 136Q120 32 62 -38Q39 -64 32 -64Q27 -64 27.0 -55.5Q27 -47 44 -13Q86 68 116.0 168.5Q146 269 146 303L140 336Q140 345 150 345Q173 345 204 326Q219 318 219 307ZM522 672Q552 667 572 667L780 682L791 683Q793 683 804 680Q838 669 838 646Q838 639 835.0 633.0Q832 627 831 621L813 471Q843 442 843.0 430.0Q843 418 815 416L622 406L619 224V219Q619 201 626 190Q641 169 729.0 169.0Q817 169 838.5 186.5Q860 204 876 308Q882 344 893 344Q909 344 909 253L908 212Q907 166 886.0 143.0Q865 120 822.5 113.0Q780 106 729.0 106.0Q678 106 641.5 111.0Q605 116 580.5 136.0Q556 156 556 200V205L562 410V417Q562 449 553.5 462.5Q545 476 545.0 481.5Q545 487 559.5 487.0Q574 487 626 461L754 468L765 625L604 614L577 613Q534 613 518 658Q516 664 516 666Q516 672 522 672Z"/><path transform="translate(2000 0)" d="M676 615Q691 617 713 624Q716 624 728 617Q761 597 761 580Q761 570 741 567L314 544L287 543Q278 543 262.5 550.0Q247 557 237 595Q237 601 243 601Q245 601 253.5 598.5Q262 596 284 596H296L465 605V659L225 644L198 643Q188 643 174.0 649.5Q160 656 150 691Q149 693 149 695Q149 701 155 701Q157 701 165.5 698.5Q174 696 195 696H208L465 711V755Q465 779 456.0 791.5Q447 804 447.0 811.0Q447 818 461 818Q497 818 520 800Q531 792 531 779L530 715L758 728Q777 730 785.0 733.5Q793 737 797.5 737.0Q802 737 813 730Q843 709 843 694Q843 682 825 680H823L529 662L528 608ZM269 343Q272 364 272 368L271 380L263 446Q260 473 250.5 488.0Q241 503 241 508Q241 516 256.0 516.0Q271 516 316 498L718 517H724Q741 517 751.5 505.0Q762 493 762.0 486.0Q762 479 759.5 474.0Q757 469 755 464L738 394Q765 365 765.0 357.0Q765 349 758.0 348.5Q751 348 742 347L648 344Q680 317 680.0 304.5Q680 292 587 232L853 242Q883 245 891.5 248.5Q900 252 906.5 252.0Q913 252 924 244Q952 222 952 205Q952 194 932 191L132 162L110 161H100Q93 162 80.0 169.0Q67 176 57 209Q56 211 56.0 214.5Q56 218 60 218Q85 213 94 213L414 225Q402 240 343 290Q338 294 338.0 300.5Q338 307 348.5 319.0Q359 331 365.0 331.0Q371 331 395.5 312.5Q420 294 440.5 276.5Q461 259 461.0 249.0Q461 239 448 227L533 230Q611 297 622 343L334 332V329Q334 311 319 311Q298 311 283.5 322.0Q269 333 269 343ZM692 465 321 448 329 381 679 393ZM743 -3Q769 -33 769.0 -41.0Q769 -49 761.5 -50.5Q754 -52 743 -53L338 -63L339 -79V-83Q339 -105 322 -105Q302 -105 286.5 -94.5Q271 -84 271 -70V-66Q273 -56 273.0 -46.5Q273 -37 271 -23L262 65Q260 94 251.5 108.0Q243 122 243.0 129.5Q243 137 259.5 137.0Q276 137 321 117L720 134L733 135Q751 135 761.0 122.0Q771 109 771.0 103.5Q771 98 768.0 94.0Q765 90 764 86ZM699 81 324 66 333 -12 683 -2Z"/><path transform="translate(3000 0)" d="M709 420Q704 363 696 322Q781 119 967 -30Q982 -42 982.0 -49.5Q982 -57 971 -66Q944 -86 935.5 -86.0Q927 -86 917 -78Q844 -11 782.0 64.0Q720 139 674 233Q640 114 550 22Q483 -47 415 -82Q390 -95 381.5 -95.0Q373 -95 373.0 -85.5Q373 -76 390 -63Q586 94 626 304Q636 359 640 407V417Q640 438 635.5 446.5Q631 455 631 458Q631 467 644.0 467.0Q657 467 677.5 459.5Q698 452 703.5 446.0Q709 440 709 429ZM599 763 595 790Q595 800 607 800Q613 800 628 795Q671 781 671 761Q671 745 650.0 681.0Q629 617 614 580L867 598Q872 599 876 599H885Q902 599 915.0 587.5Q928 576 928.0 567.0Q928 558 923.0 552.0Q918 546 905.5 524.0Q893 502 868 464Q812 375 793 375Q785 375 785.0 384.5Q785 394 796 418Q826 477 844 540L591 524Q547 424 511.0 377.0Q475 330 465 330Q459 330 459.0 339.5Q459 349 491.0 413.5Q523 478 561.0 605.5Q599 733 599 763ZM105 649Q144 646 152 646H162L406 659H418Q432 659 447.5 650.0Q463 641 464.0 630.5Q465 620 460.5 614.0Q456 608 446 562Q421 441 362 318L356 306Q432 203 464 155Q496 114 446 98Q436 94 434 94Q422 95 414 111Q386 158 364.0 190.0Q342 222 324 249Q240 116 143 28Q101 -10 73.5 -28.5Q46 -47 41.5 -47.0Q37 -47 37.0 -36.5Q37 -26 49 -16Q192 123 286 302Q205 413 177.0 448.5Q149 484 149.5 494.0Q150 504 166.0 512.5Q182 521 186.0 520.0Q190 519 196 516Q202 511 252 444Q270 423 315 362Q345 442 358.5 488.5Q372 535 381 604L188 590Q178 589 170 589H155Q135 589 125.0 597.5Q115 606 104.5 622.0Q94 638 94.0 643.5Q94 649 100 649Z"/><path transform="translate(4000 0)" d="M114 -104Q101 -104 101 -90Q101 -80 112.5 -72.5Q124 -65 141.0 -44.5Q158 -24 164 -8Q149 -2 143 1Q117 24 117.0 49.5Q117 75 134.5 88.5Q152 102 174.5 102.0Q197 102 212.5 83.0Q228 64 231 38V30Q231 -14 187.5 -59.0Q144 -104 114 -104Z"/><path transform="translate(5000 0)" d="M250 640 464 653V743Q464 762 453.5 777.0Q443 792 443 796Q443 805 458 805L470 803Q534 791 534 768L532 657L848 676H855Q875 676 891.5 665.0Q908 654 908.0 643.0Q908 632 901.0 625.5Q894 619 867.5 579.5Q841 540 806.0 502.0Q771 464 757 464Q752 464 752.0 473.0Q752 482 775.5 524.0Q799 566 817 616L231 582Q201 500 171 448Q162 436 156.5 436.0Q151 436 140 442Q111 457 111 471Q111 476 124.5 497.5Q138 519 160.0 575.5Q182 632 198 685Q203 702 217.5 702.0Q232 702 245.0 693.5Q258 685 258.0 674.5Q258 664 250 640ZM858 406 888 415Q904 415 932 384Q943 372 943 365Q943 355 922 352L698 341Q644 211 558 119Q702 56 829 -17Q852 -30 852 -48L850 -58Q841 -91 823 -91Q812 -91 795 -80Q664 4 511 73Q427 3 311 -37Q235 -63 183.0 -70.5Q131 -78 129 -78Q104 -78 104 -67Q104 -53 153.0 -40.0Q202 -27 254 -9Q360 28 449 101Q330 153 298 156Q284 158 276 180Q273 189 273.0 197.0Q273 205 292.0 235.5Q311 266 341 324L118 313Q93 313 86 320Q58 348 58 368Q58 375 62.0 375.0Q66 375 75.0 371.5Q84 368 111 368H122L371 380Q402 443 417.5 491.5Q433 540 433 556V566Q433 576 442.5 576.0Q452 576 466.5 568.5Q481 561 492.5 549.5Q504 538 504.0 525.5Q504 513 443 384L832 402Q846 403 858 406ZM343 203Q430 173 497 145Q573 227 620 337L414 328Q370 243 343 203Z"/><path transform="translate(6000 0)" d="M844 515Q798 347 731 229Q826 96 979 -20Q989 -27 989.0 -33.0Q989 -39 979 -48Q954 -72 933.5 -72.0Q913 -72 803 48Q742 113 696 175Q609 49 511 -18Q471 -46 445.5 -58.0Q420 -70 413.0 -70.0Q406 -70 406.0 -62.5Q406 -55 425 -39Q494 17 551.0 80.5Q608 144 659 230Q593 334 552 444Q500 363 474.5 337.5Q449 312 441.0 312.0Q433 312 433.0 322.0Q433 332 444 349Q514 458 565.5 598.0Q617 738 617 778V786Q617 791 616 795V797Q616 805 627.0 805.0Q638 805 653.0 795.0Q668 785 679.5 772.5Q691 760 691.0 752.5Q691 745 668.0 683.5Q645 622 613 555L846 569Q865 570 880.0 575.5Q895 581 903.0 581.0Q911 581 924.0 571.5Q937 562 946.0 550.5Q955 539 955 532Q955 522 933 520ZM248 423 378 435Q406 435 418 408Q423 399 423.0 394.0Q423 389 419.5 383.5Q416 378 415 373Q380 29 338 -24Q331 -33 318.0 -41.0Q305 -49 292.5 -49.0Q280 -49 257.5 -31.5Q235 -14 214 11Q163 70 163 91Q163 98 169.0 98.0Q175 98 204.5 76.0Q234 54 258.0 39.5Q282 25 285 25Q293 25 294 32Q320 114 332.5 201.0Q345 288 353 377L236 369Q201 219 140 110Q108 55 65 -1Q51 -19 41 -19Q34 -19 34.0 -10.0Q34 -1 43 17Q169 244 206 530L125 524L103 523Q70 523 52 560Q45 574 45.0 579.5Q45 585 52 585Q55 585 71.0 581.0Q87 577 101 577H107L246 587L243 714Q243 731 233.5 743.0Q224 755 224 760Q224 768 235.5 768.0Q247 768 264 764Q306 752 306 734L305 591L407 598Q428 600 440.5 604.0Q453 608 460.5 608.0Q468 608 480 600Q511 579 511 562Q511 551 488 549L268 534Q260 481 248 423ZM591 501Q630 387 691 288Q747 405 771 511Z"/><path transform="translate(7000 0)" d="M237 -37Q241 -9 241 16V36L225 627Q223 667 212.5 686.5Q202 706 202.0 713.0Q202 720 218.5 720.0Q235 720 287 695L728 718H735Q749 718 766.5 707.5Q784 697 784 680Q784 674 782.0 669.0Q780 664 779 659L751 64Q779 29 779.0 18.5Q779 8 770.0 6.5Q761 5 747 4L309 -11L310 -52V-57Q310 -82 294 -82Q272 -82 254.5 -66.0Q237 -50 237 -37ZM710 657 290 635 297 381 700 401ZM698 340 299 322 307 49 687 61Z"/><path transform="translate(8000 0)" d="M181 554Q165 482 144 432Q137 415 123.5 415.0Q110 415 94.5 426.0Q79 437 79.0 443.5Q79 450 80 453Q125 541 141 654Q144 676 162 676Q190 676 194.5 666.5Q199 657 199.0 652.0Q199 647 198 643L192 607L462 624L464 767Q464 788 450 808Q445 818 445 821Q445 828 454.5 828.0Q464 828 482 823Q528 810 528 790L523 628L574 631Q576 633 578.0 636.0Q580 639 603.5 666.0Q627 693 651.0 727.5Q675 762 677.5 785.5Q680 809 689 809Q695 809 709.0 800.0Q723 791 735.0 778.0Q747 765 747.0 756.5Q747 748 728 728Q681 676 617 634L873 650H881Q905 650 920.5 637.5Q936 625 936.0 617.0Q936 609 929.5 603.5Q923 598 904.0 573.5Q885 549 853.0 518.0Q821 487 798.0 471.5Q775 456 768.0 456.0Q761 456 761.0 463.0Q761 470 792.0 510.5Q823 551 845 593ZM344 641Q303 691 256 730Q244 740 244.0 746.5Q244 753 253.0 764.5Q262 776 270 776Q287 776 341.5 728.5Q396 681 396 664Q396 657 386.0 643.0Q376 629 365.0 629.0Q354 629 344 641ZM342 499 649 517H655Q672 517 683.5 506.5Q695 496 695.0 489.5Q695 483 692.0 478.5Q689 474 688 469L672 377Q696 349 696.0 341.5Q696 334 690.5 332.5Q685 331 676 330L366 315V305Q366 288 353 288Q336 288 320.5 299.0Q305 310 305 321V325Q306 331 306 336V346Q306 355 305 359L293 452Q291 471 284 484Q272 502 272.0 507.5Q272 513 286.0 513.0Q300 513 342 499ZM625 465 351 450 360 365 615 378ZM456 -75Q462 -21 462 17V187L279 178L288 13V8Q288 -15 273 -15Q269 -15 256 -10Q222 2 222 23V27Q225 50 225 64V86Q225 93 224 101L219 167Q218 202 211.0 222.0Q204 242 204.0 248.5Q204 255 216.0 255.0Q228 255 282 231L462 240V245Q462 275 455.0 291.5Q448 308 448 310Q448 316 457.5 316.0Q467 316 482 312Q524 299 524 279V243L735 253L750 254Q772 254 786.0 240.5Q800 227 800.0 219.5Q800 212 795.5 205.5Q791 199 790 192L782 79Q781 74 781 70V46Q781 18 767.5 4.5Q754 -9 739.0 -9.0Q724 -9 700.5 2.0Q677 13 652.5 29.0Q628 45 611.5 60.5Q595 76 595.0 82.0Q595 88 601.0 88.0Q607 88 613 86L627 83Q690 64 720 59L727 199L524 190V-94Q524 -116 506 -116Q501 -116 488.5 -110.5Q476 -105 466.0 -95.5Q456 -86 456 -75Z"/><path transform="translate(9000 0)" d="M214.5 -33.0Q249 -33 273.0 -9.0Q297 15 297.0 49.5Q297 84 273.0 108.0Q249 132 214.5 132.0Q180 132 155.5 108.0Q131 84 131.0 49.5Q131 15 155.5 -9.0Q180 -33 214.5 -33.0ZM284.5 167.5Q315 149 333.0 118.0Q351 87 351.0 49.5Q351 12 332.5 -19.0Q314 -50 283.0 -68.5Q252 -87 214.5 -87.0Q177 -87 145.5 -68.5Q114 -50 95.5 -19.0Q77 12 77.0 49.5Q77 87 96.0 118.0Q115 149 147.0 167.5Q179 186 216.5 186.0Q254 186 284.5 167.5Z"/></g>
<g transform="translate(272.80 610) scale(0.08 -0.08)"><path transform="translate(0 0)" d="M448 488Q445 536 425.0 579.0Q405 622 367.0 649.0Q329 676 270 676Q208 676 175.0 641.0Q142 606 142 559Q142 517 166.0 488.5Q190 460 228.5 438.5Q267 417 310 397Q348 380 386.0 360.5Q424 341 455.0 316.0Q486 291 504.5 256.5Q523 222 523 174Q523 119 495.5 76.0Q468 33 416.0 8.5Q364 -16 289 -16Q244 -16 196.0 -3.0Q148 10 111 35L116 -8H64L58 205H97Q102 117 158.0 71.5Q214 26 293 26Q332 26 365.0 40.5Q398 55 417.5 83.0Q437 111 437 151Q437 196 413.0 226.0Q389 256 351.0 278.0Q313 300 270 320Q232 337 195.0 356.0Q158 375 127.5 399.5Q97 424 78.5 458.0Q60 492 60 540Q60 566 69.0 596.0Q78 626 100.5 653.5Q123 681 162.5 698.5Q202 716 263 716Q301 716 348.5 705.5Q396 695 437 665L433 708H484V488Z"/><path transform="translate(567 0)" d="M365 30Q396 30 408.0 45.5Q420 61 422.0 88.5Q424 116 424 152V292Q424 378 396.5 421.0Q369 464 310 463Q273 462 237.5 445.0Q202 428 180 401V106Q180 86 179.0 70.5Q178 55 175 38Q191 39 206.5 39.5Q222 40 238 41V0H34V30Q65 30 77.0 45.5Q89 61 91.5 88.5Q94 116 94 152V625Q94 641 94.5 655.5Q95 670 97 690Q79 689 61.5 688.0Q44 687 26 686V728Q70 728 94.5 732.0Q119 736 131.5 742.0Q144 748 151 755H180V450Q202 469 229.5 483.5Q257 498 286.5 507.0Q316 516 344 516Q431 516 469.5 461.5Q508 407 509 292L510 106Q510 86 509.5 70.5Q509 55 506 38Q522 39 537.5 39.5Q553 40 569 41V0H365Z"/><path transform="translate(1166 0)" d="M44 30Q75 30 87.0 45.5Q99 61 101.0 88.5Q103 116 103 152V380Q103 396 104.0 410.5Q105 425 107 445Q89 444 71.5 443.0Q54 442 36 441V483Q80 483 104.0 487.0Q128 491 140.5 497.0Q153 503 160 510H189V106Q189 86 188.5 70.5Q188 55 185 38Q201 39 216.5 39.5Q232 40 248 41V0H44ZM140 609Q119 609 103.0 626.0Q87 643 87 668Q87 693 103.5 710.5Q120 728 141 728Q164 728 179.5 710.5Q195 693 195 668Q195 643 178.5 626.0Q162 609 140 609Z"/><path transform="translate(1447 0)" d="M121 -271Q90 -271 68.0 -256.0Q46 -241 46 -210Q46 -192 58.0 -177.0Q70 -162 89 -162Q113 -161 121.5 -177.0Q130 -193 130 -205Q130 -208 130.0 -211.5Q130 -215 129 -219Q132 -221 140 -221Q152 -221 166.0 -211.0Q180 -201 191 -182Q204 -160 221.5 -116.0Q239 -72 261 -11L105 323Q79 379 67.5 412.0Q56 445 52 461L4 459V500H211V470H207Q165 467 161.0 438.5Q157 410 184 352L301 101Q324 165 345.0 227.5Q366 290 387 352Q395 374 403.5 397.5Q412 421 420.5 439.5Q429 458 436 463L367 459V500H524V470Q487 456 468.5 423.5Q450 391 431 340L306 -9Q276 -93 251.0 -151.5Q226 -210 196.0 -240.5Q166 -271 121 -271Z"/><path transform="translate(1975 0)" d="M255 -16Q201 -16 164.5 4.0Q128 24 109.5 72.0Q91 120 91 202V380Q91 396 91.5 412.0Q92 428 95 445Q78 444 60.5 443.5Q43 443 26 442V483H57Q100 483 119.5 491.5Q139 500 150 510H179V205Q179 119 203.5 76.5Q228 34 287 35Q325 36 359.5 58.5Q394 81 415 112V369Q415 393 416.0 410.5Q417 428 420 445Q402 444 384.0 443.5Q366 443 348 442V483H379Q422 483 441.5 491.5Q461 500 472 510H501L500 132Q500 116 499.0 87.0Q498 58 496 38Q514 39 532.0 40.0Q550 41 568 42V0H425Q422 17 420.5 32.0Q419 47 418 60Q387 29 343.0 6.5Q299 -16 255 -16Z"/><path transform="translate(2835 0)" d="M311 -16Q235 -16 185.0 16.5Q135 49 107.0 102.5Q79 156 67.5 220.0Q56 284 56 347Q56 410 70.5 475.0Q85 540 116.0 594.5Q147 649 196.0 682.5Q245 716 315 716Q388 716 436.5 683.0Q485 650 513.5 596.5Q542 543 554.0 479.0Q566 415 566 352Q566 290 552.0 225.0Q538 160 508.0 105.5Q478 51 429.5 17.5Q381 -16 311 -16ZM317 23Q360 23 388.0 50.0Q416 77 432.5 122.0Q449 167 456.0 221.5Q463 276 463 331Q463 392 456.0 453.0Q449 514 432.0 565.0Q415 616 386.0 647.0Q357 678 313 678Q270 678 240.5 651.0Q211 624 193.0 579.0Q175 534 167.0 479.0Q159 424 159 368Q159 326 163.0 279.0Q167 232 177.5 186.5Q188 141 206.0 104.0Q224 67 251.0 45.0Q278 23 317 23Z"/><path transform="translate(3456 0)" d="M74 0V33Q109 35 127.5 49.0Q146 63 153.5 88.0Q161 113 161 147L158 619L38 542L18 571L213 716H247L248 109Q248 90 247.5 72.0Q247 54 245 40Q266 41 287.0 42.0Q308 43 329 44V0Z"/><path transform="translate(3820 0)" d="M46 0Q46 53 62.5 94.0Q79 135 107.0 169.5Q135 204 170.5 236.5Q206 269 243 305Q308 367 337.0 420.0Q366 473 366 522Q366 560 355.5 595.5Q345 631 318.0 654.0Q291 677 243 677Q202 677 170.0 656.5Q138 636 127 606Q137 596 141.0 584.5Q145 573 145 562Q145 553 140.5 542.0Q136 531 125.0 523.0Q114 515 96 515Q74 516 62.0 532.0Q50 548 50 570Q50 591 63.0 616.5Q76 642 102.5 664.5Q129 687 168.0 701.5Q207 716 259 716Q299 716 336.5 706.5Q374 697 404.0 676.0Q434 655 451.5 620.5Q469 586 469 535Q469 510 458.5 481.0Q448 452 424.5 418.5Q401 385 364.0 347.5Q327 310 273 266Q205 210 161.5 160.5Q118 111 111 76L288 71Q337 70 374.5 71.0Q412 72 433.5 86.5Q455 101 455 140H485L479 0Z"/><path transform="translate(4357 0)" d="M255 -16Q183 -16 136.0 5.5Q89 27 66.5 59.0Q44 91 44 120Q44 143 56.0 158.5Q68 174 90 175Q108 176 118.5 168.5Q129 161 133.0 150.0Q137 139 137 130Q137 120 134.0 110.0Q131 100 126 90Q136 56 171.5 41.0Q207 26 248 26Q319 26 361.5 65.0Q404 104 404 178Q404 222 390.0 261.5Q376 301 338.0 326.0Q300 351 227 349Q219 349 210.0 348.5Q201 348 190 347V392Q201 392 211.0 392.0Q221 392 231 392Q284 392 314.0 416.0Q344 440 357.0 473.0Q370 506 370 534Q370 575 359.5 607.5Q349 640 323.0 658.5Q297 677 251 677Q206 677 174.0 653.5Q142 630 134 605Q143 595 146.5 585.0Q150 575 150 564Q150 556 145.5 545.5Q141 535 131.0 528.0Q121 521 104 521Q83 521 72.0 536.0Q61 551 61 572Q61 600 83.0 633.5Q105 667 150.5 691.5Q196 716 265 716Q319 716 365.0 699.0Q411 682 439.0 643.5Q467 605 467 542Q467 511 451.5 479.5Q436 448 400.5 421.0Q365 394 303 375Q398 365 452.5 314.0Q507 263 507 185Q507 117 471.5 72.5Q436 28 378.5 6.0Q321 -16 255 -16Z"/><path transform="translate(4914 0)" d="M407 109Q407 89 406.5 71.0Q406 53 403 38Q423 39 442.0 39.5Q461 40 480 41V0H229V33H236Q270 36 287.0 52.0Q304 68 310.0 95.0Q316 122 316 159V193H12V242L374 716H407V253L508 252V193H407ZM314 574 78 258 316 255V574Z"/><path transform="translate(5456 0)" d="M254 -16Q190 -16 145.0 5.5Q100 27 76.0 59.0Q52 91 52 120Q52 143 64.0 158.5Q76 174 98 175Q116 176 126.5 168.5Q137 161 141.0 150.0Q145 139 145 130Q145 120 142.0 110.0Q139 100 134 91Q138 67 159.0 51.5Q180 36 207.5 29.0Q235 22 258 23Q307 25 337.0 49.5Q367 74 381.5 112.0Q396 150 396 192Q396 220 391.5 254.0Q387 288 371.5 318.5Q356 349 325.0 369.0Q294 389 241 389Q224 389 199.5 385.0Q175 381 150.5 373.0Q126 365 109 354L81 380L79 700H338Q395 700 416.5 715.5Q438 731 438 765H465L459 633L125 626V406Q149 416 187.5 425.0Q226 434 270 434Q332 434 375.5 414.5Q419 395 446.5 362.5Q474 330 487.0 290.5Q500 251 500 210Q500 136 465.5 85.5Q431 35 375.0 9.5Q319 -16 254 -16Z"/><path transform="translate(6001 0)" d="M295 -16Q206 -16 153.5 26.0Q101 68 78.5 145.5Q56 223 56 329Q56 365 62.5 414.5Q69 464 86.0 516.5Q103 569 133.5 614.5Q164 660 212.0 688.0Q260 716 328 716Q388 716 427.0 694.5Q466 673 485.5 643.5Q505 614 505 589Q505 568 494.5 553.5Q484 539 462 537Q437 536 427.0 551.0Q417 566 417 579Q417 589 420.0 600.0Q423 611 429 621Q424 639 397.5 659.0Q371 679 330 679Q284 679 252.5 655.0Q221 631 201.5 592.0Q182 553 171.0 508.5Q160 464 155.5 423.0Q151 382 150 353Q167 375 191.0 394.0Q215 413 247.0 425.0Q279 437 318 437Q378 437 418.5 416.5Q459 396 483.5 363.0Q508 330 518.5 290.5Q529 251 529 213Q529 151 498.5 98.5Q468 46 415.0 15.0Q362 -16 295 -16ZM297 23Q344 23 373.0 46.5Q402 70 415.0 108.5Q428 147 428 191Q428 219 423.0 253.5Q418 288 404.5 319.5Q391 351 365.0 371.5Q339 392 297 392Q266 392 236.0 376.5Q206 361 183.5 336.0Q161 311 151 282Q154 234 162.5 188.0Q171 142 187.5 105.0Q204 68 231.0 45.5Q258 23 297 23Z"/><path transform="translate(6579 0)" d="M195 -16Q176 -14 168.0 -2.0Q160 10 160 28Q160 50 171.5 85.0Q183 120 199.0 159.5Q215 199 228 232Q247 279 273.0 346.0Q299 413 330.5 487.5Q362 562 395 631L131 630Q91 629 68.5 611.0Q46 593 46 552H22V700H441V632Q405 557 378.5 489.0Q352 421 331.0 352.5Q310 284 291.0 209.0Q272 134 250 45Q244 21 231.5 2.0Q219 -17 195 -16Z"/><path transform="translate(7040 0)" d="M276 -16Q241 -16 203.0 -7.5Q165 1 132.5 20.0Q100 39 79.5 71.0Q59 103 59 150Q59 195 81.0 232.5Q103 270 137.5 300.5Q172 331 211 355Q135 401 104.0 446.5Q73 492 73 535Q73 582 91.5 616.5Q110 651 141.0 673.0Q172 695 209.5 705.5Q247 716 285 716Q336 716 380.5 697.5Q425 679 452.5 643.0Q480 607 480 555Q480 516 461.5 483.0Q443 450 412.5 424.5Q382 399 345 380Q390 354 428.0 320.5Q466 287 489.0 248.0Q512 209 512 166Q512 103 479.0 62.5Q446 22 392.0 3.0Q338 -16 276 -16ZM278 24Q343 23 378.5 56.0Q414 89 414 147Q414 199 377.5 248.5Q341 298 249 337Q194 297 169.5 251.0Q145 205 143 168Q139 104 176.5 64.5Q214 25 278 24ZM310 400Q354 430 377.5 468.0Q401 506 402 543Q404 608 372.0 642.0Q340 676 287 677Q248 678 221.0 660.5Q194 643 180.0 615.5Q166 588 166 557Q166 502 207.5 461.5Q249 421 310 400Z"/><path transform="translate(7602 0)" d="M257 -16Q192 -16 151.5 3.5Q111 23 93.0 52.0Q75 81 75 107Q75 129 86.0 144.0Q97 159 119 160Q143 161 153.5 145.5Q164 130 164 117Q164 107 160.5 96.5Q157 86 150 76Q157 54 180.5 38.0Q204 22 252 22Q298 22 329.0 44.0Q360 66 379.0 102.5Q398 139 408.0 182.5Q418 226 421.5 269.0Q425 312 425 346Q400 312 358.0 287.0Q316 262 257 262Q197 262 156.5 282.5Q116 303 92.5 336.0Q69 369 58.5 408.0Q48 447 48 485Q48 550 77.0 602.5Q106 655 159.0 685.5Q212 716 284 716Q355 716 400.5 689.0Q446 662 472.0 613.5Q498 565 508.5 500.0Q519 435 519 359Q519 315 513.5 264.5Q508 214 492.5 164.5Q477 115 448.0 74.5Q419 34 372.0 9.0Q325 -16 257 -16ZM278 307Q310 307 339.5 322.5Q369 338 392.0 363.0Q415 388 424 417Q421 464 413.0 510.0Q405 556 388.5 594.0Q372 632 345.0 655.0Q318 678 277 678Q234 678 205.0 653.5Q176 629 161.5 590.0Q147 551 147 507Q147 479 152.0 444.5Q157 410 170.5 378.5Q184 347 210.0 327.0Q236 307 278 307Z"/></g>
</g>
</svg>
